<?xml version="1.0" encoding="UTF-8"?>
<svg width="32" height="32" viewBox="0 0 32 32" fill="none" xmlns="http://www.w3.org/2000/svg">
  <!-- Определение цветов с прозрачностью -->
  <defs>
    <linearGradient id="cube1" x1="0%" y1="0%" x2="100%" y2="100%">
      <stop offset="0%" style="stop-color:#FF6B6B;stop-opacity:0.8"/>
      <stop offset="100%" style="stop-color:#FF6B6B;stop-opacity:0.6"/>
    </linearGradient>
    <linearGradient id="cube2" x1="0%" y1="0%" x2="100%" y2="100%">
      <stop offset="0%" style="stop-color:#4ECDC4;stop-opacity:0.8"/>
      <stop offset="100%" style="stop-color:#4ECDC4;stop-opacity:0.6"/>
    </linearGradient>
    <linearGradient id="cube3" x1="0%" y1="0%" x2="100%" y2="100%">
      <stop offset="0%" style="stop-color:#FFD93D;stop-opacity:0.8"/>
      <stop offset="100%" style="stop-color:#FFD93D;stop-opacity:0.6"/>
    </linearGradient>
  </defs>

  <!-- Первый куб (красный) - левый нижний -->
  <g transform="translate(4, 16) scale(0.5)">
    <path d="M16 2L4 8V24L16 30L28 24V8L16 2Z" fill="url(#cube1)" stroke="#FF6B6B" stroke-width="1.5"/>
    <path d="M4 8L16 14L28 8" stroke="#FF6B6B" stroke-width="1.5"/>
    <path d="M16 14V30" stroke="#FF6B6B" stroke-width="1.5"/>
  </g>

  <!-- Второй куб (бирюзовый) - правый нижний -->
  <g transform="translate(16, 16) scale(0.5)">
    <path d="M16 2L4 8V24L16 30L28 24V8L16 2Z" fill="url(#cube2)" stroke="#4ECDC4" stroke-width="1.5"/>
    <path d="M4 8L16 14L28 8" stroke="#4ECDC4" stroke-width="1.5"/>
    <path d="M16 14V30" stroke="#4ECDC4" stroke-width="1.5"/>
  </g>

  <!-- Третий куб (желтый) - верхний центральный -->
  <g transform="translate(10, 4) scale(0.5)">
    <path d="M16 2L4 8V24L16 30L28 24V8L16 2Z" fill="url(#cube3)" stroke="#FFD93D" stroke-width="1.5"/>
    <path d="M4 8L16 14L28 8" stroke="#FFD93D" stroke-width="1.5"/>
    <path d="M16 14V30" stroke="#FFD93D" stroke-width="1.5"/>
  </g>
</svg> 